<svg width="48" height="49" viewBox="0 0 48 49" fill="none" xmlns="http://www.w3.org/2000/svg">
<path d="M0 24.5C0 11.2452 10.7452 0.5 24 0.5C37.2548 0.5 48 11.2452 48 24.5C48 37.7548 37.2548 48.5 24 48.5C10.7452 48.5 0 37.7548 0 24.5Z" fill="#3B5998"/>
<g clip-path="url(#clip0_3_2928)">
<mask id="mask0_3_2928" style="mask-type:luminance" maskUnits="userSpaceOnUse" x="18" y="14" width="12" height="21">
<path fill-rule="evenodd" clip-rule="evenodd" d="M21.8402 34.5V25.555H18.8442V22H21.8402V19.2C21.8402 16.155 23.7002 14.5 26.4142 14.5C27.7142 14.5 28.8322 14.598 29.1562 14.64V17.82H27.2732C25.7972 17.82 25.5122 18.523 25.5122 19.55V22H28.8442L28.3872 25.555H25.5122V34.5" fill="white"/>
</mask>
<g mask="url(#mask0_3_2928)">
<path d="M14 14.5H34V34.5H14V14.5Z" fill="white"/>
</g>
</g>
<defs>
<clipPath id="clip0_3_2928">
<rect width="20" height="20" fill="white" transform="translate(14 14.5)"/>
</clipPath>
</defs>
</svg>
