<svg width="48" height="49" viewBox="0 0 48 49" fill="none" xmlns="http://www.w3.org/2000/svg">
<path d="M0 24.5C0 11.2452 10.7452 0.5 24 0.5C37.2548 0.5 48 11.2452 48 24.5C48 37.7548 37.2548 48.5 24 48.5C10.7452 48.5 0 37.7548 0 24.5Z" fill="#272E33"/>
<g clip-path="url(#clip0_3_2915)">
<mask id="mask0_3_2915" style="mask-type:luminance" maskUnits="userSpaceOnUse" x="14" y="14" width="20" height="21">
<path fill-rule="evenodd" clip-rule="evenodd" d="M20.69 30.444C20.69 30.524 20.597 30.589 20.48 30.589C20.347 30.601 20.254 30.536 20.254 30.444C20.254 30.363 20.347 30.298 20.464 30.298C20.584 30.286 20.69 30.351 20.69 30.444ZM19.435 30.262C19.407 30.342 19.488 30.435 19.609 30.46C19.714 30.5 19.835 30.46 19.859 30.379C19.883 30.299 19.806 30.206 19.685 30.169C19.581 30.141 19.464 30.181 19.435 30.262ZM21.218 30.194C21.101 30.222 21.02 30.298 21.032 30.391C21.044 30.471 21.149 30.524 21.27 30.496C21.387 30.468 21.468 30.391 21.456 30.31C21.444 30.234 21.335 30.181 21.218 30.194ZM23.87 14.742C18.278 14.742 14 18.988 14 24.58C14 29.051 16.815 32.878 20.835 34.225C21.351 34.318 21.532 33.999 21.532 33.737C21.532 33.487 21.52 32.107 21.52 31.261C21.52 31.261 18.698 31.866 18.105 30.059C18.105 30.059 17.645 28.886 16.984 28.584C16.984 28.584 16.06 27.951 17.048 27.963C17.048 27.963 18.052 28.043 18.605 29.003C19.488 30.56 20.968 30.112 21.545 29.846C21.637 29.201 21.899 28.753 22.19 28.486C19.935 28.236 17.661 27.91 17.661 24.031C17.661 22.922 17.968 22.366 18.613 21.656C18.508 21.394 18.165 20.314 18.718 18.918C19.56 18.657 21.5 20.01 21.5 20.01C22.3246 19.7815 23.1763 19.6658 24.032 19.666C24.892 19.666 25.758 19.783 26.565 20.009C26.565 20.009 28.504 18.654 29.347 18.92C29.899 20.32 29.557 21.396 29.452 21.658C30.097 22.372 30.492 22.928 30.492 24.033C30.492 27.924 28.117 28.235 25.862 28.489C26.234 28.808 26.548 29.412 26.548 30.359C26.548 31.719 26.536 33.4 26.536 33.731C26.536 33.993 26.722 34.311 27.234 34.219C31.266 32.879 34 29.052 34 24.58C34 18.988 29.464 14.74 23.871 14.74L23.87 14.742ZM17.919 28.649C17.867 28.689 17.879 28.782 17.948 28.859C18.012 28.923 18.105 28.952 18.158 28.899C18.21 28.859 18.198 28.766 18.129 28.689C18.065 28.625 17.972 28.597 17.919 28.649ZM17.484 28.323C17.456 28.375 17.496 28.44 17.577 28.48C17.641 28.52 17.722 28.508 17.75 28.452C17.778 28.399 17.738 28.335 17.657 28.294C17.577 28.27 17.512 28.282 17.484 28.323ZM18.79 29.758C18.726 29.811 18.75 29.932 18.843 30.008C18.935 30.101 19.053 30.113 19.105 30.048C19.157 29.996 19.133 29.875 19.052 29.798C18.964 29.706 18.842 29.694 18.79 29.758ZM18.33 29.165C18.266 29.205 18.266 29.311 18.33 29.403C18.395 29.496 18.504 29.536 18.556 29.496C18.621 29.443 18.621 29.339 18.556 29.246C18.5 29.153 18.396 29.113 18.331 29.166L18.33 29.165Z" fill="white"/>
</mask>
<g mask="url(#mask0_3_2915)">
<path d="M14 14.5H34V34.5H14V14.5Z" fill="white"/>
</g>
</g>
<defs>
<clipPath id="clip0_3_2915">
<rect width="20" height="20" fill="white" transform="translate(14 14.5)"/>
</clipPath>
</defs>
</svg>
