<svg width="48" height="49" viewBox="0 0 48 49" fill="none" xmlns="http://www.w3.org/2000/svg">
<path d="M0.5 24.5C0.5 11.5213 11.0213 1 24 1C36.9787 1 47.5 11.5213 47.5 24.5C47.5 37.4787 36.9787 48 24 48C11.0213 48 0.5 37.4787 0.5 24.5Z" fill="white"/>
<path d="M0.5 24.5C0.5 11.5213 11.0213 1 24 1C36.9787 1 47.5 11.5213 47.5 24.5C47.5 37.4787 36.9787 48 24 48C11.0213 48 0.5 37.4787 0.5 24.5Z" stroke="#DEE2E6"/>
<g clip-path="url(#clip0_3_2922)">
<path d="M33.9902 24.687C33.9902 23.867 33.9212 23.27 33.7742 22.65H24.2002V26.348H29.8202C29.7072 27.268 29.0952 28.651 27.7362 29.581L27.7162 29.705L30.7442 31.997L30.9542 32.017C32.8802 30.279 33.9902 27.721 33.9902 24.687Z" fill="#4285F4"/>
<path d="M24.1999 34.431C26.9529 34.431 29.2639 33.545 30.9529 32.017L27.7349 29.581C26.8729 30.168 25.7179 30.578 24.1989 30.578C22.9208 30.5792 21.6744 30.1805 20.6342 29.438C19.5939 28.6954 18.812 27.6461 18.3979 26.437L18.2779 26.447L15.1299 28.827L15.0889 28.939C16.7659 32.195 20.2119 34.431 24.1999 34.431Z" fill="#34A853"/>
<path d="M18.398 26.437C18.1753 25.8036 18.0604 25.1374 18.058 24.466C18.058 23.779 18.183 23.115 18.387 22.495L18.381 22.363L15.193 19.943L15.089 19.993C14.3761 21.376 14.0031 22.909 14.001 24.465C14.003 26.0213 14.3759 27.5547 15.089 28.938L18.398 26.436V26.437Z" fill="#FBBC05"/>
<path d="M24.1998 18.353C26.1138 18.353 27.4058 19.162 28.1428 19.837L31.0208 17.091C29.2528 15.485 26.9528 14.5 24.1988 14.5C20.2108 14.5 16.7658 16.737 15.0898 19.992L18.3868 22.495C18.8048 21.2859 19.5894 20.2372 20.6312 19.4948C21.6731 18.7524 22.9205 18.3533 24.1998 18.353Z" fill="#EB4335"/>
</g>
<defs>
<clipPath id="clip0_3_2922">
<rect width="20" height="20" fill="white" transform="translate(14 14.5)"/>
</clipPath>
</defs>
</svg>
